<svg width="449" height="73" viewBox="0 0 449 73" fill="none" xmlns="http://www.w3.org/2000/svg">
<path d="M55.9333 2H65V36.5V71H55.9333L52.2059 64.9148C52.1147 64.7659 51.986 64.6434 51.8328 64.5597L10.1315 41.7648C5.96862 39.4893 5.96862 33.5107 10.1315 31.2352L51.8328 8.44034C51.986 8.35658 52.1147 8.23414 52.2059 8.08522L55.9333 2Z" fill="#0A72EC"/>
<path d="M93 2H139L108.215 36.5L139 71H93V2Z" fill="#61AAFF"/>
<path fill-rule="evenodd" clip-rule="evenodd" d="M348.355 72.2C328.386 72.2 313.855 57.1398 313.855 36.5C313.855 15.8601 328.386 0.799988 348.355 0.799988C368.319 0.799988 382.855 15.7561 382.855 36.5C382.855 57.1398 368.323 72.2 348.355 72.2ZM348.355 59.8C360.733 59.8 370.055 50.1161 370.055 36.5C370.055 22.6731 360.723 13 348.355 13C335.986 13 326.655 22.6731 326.655 36.5C326.655 50.1161 335.976 59.8 348.355 59.8ZM390.464 2V71H402.664V22.7195L436.626 71H448.864V2H436.664V49.3884L403.913 2H390.464ZM314.611 2H300.516L284.529 36.9466L267.242 2H252.914L278.3 51.0866V71H290.5V51.0649L314.611 2ZM252.029 71L245.229 53.4H219.372L212.572 71H201.738H198.63H187.012L173.412 44.2H157.84V71H145.64V2H176.24C182.682 2 188.292 4.12601 192.308 7.89093C196.333 11.6642 198.64 16.9775 198.64 23.1C198.64 31.7643 194.071 38.6532 186.637 42.039L199.991 67.6489L226.654 2H238.151L265.963 71H252.029ZM223.919 41.6H240.682L232.301 19.9416L223.919 41.6ZM176.24 32.4H157.84V14H176.64C182.358 14 186.24 18.0276 186.24 23.3C186.24 25.9799 185.245 28.2172 183.57 29.7931C181.888 31.3748 179.399 32.4 176.24 32.4Z" fill="#61AAFF"/>
<rect x="81" y="2" width="8" height="69" fill="#61AAFF"/>
<rect x="69" y="2" width="8" height="69" fill="#61AAFF"/>
</svg>
